# xmcd
#
# Track frame offsets: 
#        150
#        17367
#        38456
#        55760
#        71337
#
# Disc length: 1246 seconds
#
# Revision: 0
# Processed by: cddbd v1.5.2PL0 Copyright (c) Steve Scherf et al.
# Submitted via: ExactAudioCopyFreeDBPlugin 1.0
#
DISCID=2d04dc05
DTITLE=The Moving Targets - A Sitting Duck
DYEAR=2009
DGENRE=Country
TTITLE0=Want Me Back
TTITLE1=Burn My Suit
TTITLE2=She Got Me Bad
TTITLE3=Thought I Knew Him Well
TTITLE4=Petrol On Fire
EXTD=
EXTT0=
EXTT1=
EXTT2=
EXTT3=
EXTT4=
PLAYORDER=
